<svg width="40" height="40" viewBox="0 0 40 40" fill="none" xmlns="http://www.w3.org/2000/svg">
<g clip-path="url(#clip0_738_265600)">
<path d="M39.9749 0V40.0072L2.54297 40.0272L34.7674 34.8149V5.15204H8.11993L39.9749 0Z" fill="#0C0C0C"/>
<path d="M31.855 34.8751L0 40.0272V0H37.4565L5.2075 5.20833V34.8751H31.855Z" fill="#F08A21"/>
<path d="M11.9415 20.0152C11.9415 24.4711 15.5443 28.0836 19.988 28.0836V29.6974C14.6553 29.6974 10.332 25.3624 10.332 20.0152C10.332 14.668 14.6553 10.333 19.988 10.333V11.9468C15.5441 11.9468 11.9415 15.5595 11.9415 20.0152Z" fill="#0C0C0C"/>
<path d="M29.6399 20.0152C29.6399 25.3622 25.3175 29.6974 19.9844 29.6974V28.0834C24.4284 28.0834 28.0313 24.4707 28.0313 20.0152C28.0313 15.5597 24.4284 11.9464 19.9844 11.9464V10.333C25.3172 10.333 29.6399 14.6676 29.6399 20.0152Z" fill="#F08A21"/>
<path d="M13.7057 20.0149C13.7057 23.4935 16.5181 26.3135 19.9877 26.3135V28.0833C15.5441 28.0833 11.9414 24.4706 11.9414 20.0151C11.9414 15.5596 15.5443 11.9463 19.9877 11.9463V13.716C16.5181 13.716 13.7057 16.5365 13.7057 20.0151V20.0149Z" fill="#F08A21"/>
<path d="M26.2664 20.0164C26.2664 23.495 23.4535 26.315 19.9844 26.315V13.7173C23.4535 13.7173 26.2664 16.5377 26.2664 20.0164Z" fill="#0C0C0C"/>
<path d="M10.0451 16.7752L10.1815 16.3011L9.2634 16.6589C9.29334 16.3641 9.15425 16.1304 8.8821 16.0516C8.57231 15.9618 8.28311 16.1429 8.1804 16.4998L7.96875 17.2337L9.76321 17.7538L9.8784 17.3537L9.13886 17.1392L9.15134 17.0961L10.0453 16.7752H10.0451ZM8.92596 16.7683L8.84363 17.054L8.39392 16.9237L8.47709 16.6353C8.52241 16.4773 8.64217 16.4156 8.7719 16.4531C8.91141 16.4934 8.97254 16.608 8.92576 16.7683H8.92596Z" fill="#0C0C0C"/>
<path d="M10.439 14.8862L10.0567 15.7322L9.67393 15.5579L10.0178 14.7968L9.702 14.6531L9.35812 15.4147L9.00862 15.2556L9.38535 14.4217L9.05998 14.2739L8.51172 15.4875L10.2132 16.2605L10.7665 15.0351L10.4388 14.8862H10.439Z" fill="#0C0C0C"/>
<path d="M9.80822 13.0601L9.60156 13.3749L10.754 15.0254L10.9912 14.6643L10.7767 14.3732L11.1783 13.7618L11.5297 13.8448L11.7715 13.4768L9.80843 13.0601H9.80822ZM10.5625 14.0824L10.1396 13.511L10.8289 13.6769L10.5625 14.0824Z" fill="#0C0C0C"/>
<path d="M12.3901 12.2702L11.8369 12.8881L10.7192 11.8813L10.4414 12.1909L11.8309 13.4424L12.6621 12.5149L12.3903 12.2702H12.3901Z" fill="#0C0C0C"/>
<path d="M13.9111 11.0239L13.1803 11.5945L12.9219 11.2618L13.5793 10.7483L13.3662 10.474L12.7088 10.9874L12.473 10.6843L13.1932 10.1216L12.9736 9.83936L11.9258 10.6578L13.0741 12.1351L14.1321 11.3087L13.9111 11.0241V11.0239Z" fill="#0C0C0C"/>
<path d="M15.0597 10.1353C14.7177 9.54614 14.0422 10.1284 13.8782 9.84655C13.8264 9.75712 13.8736 9.66476 14.0017 9.59013C14.1252 9.51779 14.2495 9.50987 14.4038 9.55448L14.5027 9.18694C14.3025 9.12252 14.058 9.149 13.8316 9.28096C13.4979 9.47609 13.3684 9.79131 13.5418 10.0888C13.8724 10.6575 14.5449 10.0707 14.7219 10.3757C14.7778 10.472 14.7233 10.5837 14.5726 10.6719C14.4034 10.7707 14.2435 10.7753 14.0701 10.7136L13.9715 11.0816C14.2331 11.1679 14.4628 11.1474 14.7283 10.9925C15.1167 10.7655 15.2396 10.4447 15.0597 10.1351V10.1353Z" fill="#0C0C0C"/>
<path d="M15.6331 8.85007L16.1735 8.62659L16.0357 8.29053L14.5703 8.89594L14.7086 9.232L15.2489 9.00851L15.8221 10.404L16.2064 10.2456L15.6331 8.85007Z" fill="#0C0C0C"/>
<path d="M17.1064 8.00167L16.7421 8.09528L16.4883 10.0939L16.9062 9.98677L16.9428 9.62653L17.6501 9.44474L17.8545 9.74286L18.2803 9.63341L17.1066 8.00146L17.1064 8.00167ZM16.9787 9.26712L17.049 8.55893L17.448 9.1462L16.9787 9.26712Z" fill="#0C0C0C"/>
<path d="M19.4282 8.01391L19.3874 7.65283L17.8125 7.83045L17.8532 8.19195L18.4344 8.12607L18.6026 9.62646L19.0153 9.57956L18.8471 8.07958L19.4282 8.0137V8.01391Z" fill="#0C0C0C"/>
<path d="M21.0766 8.05254L21.0887 7.6948L19.7616 7.65039L19.6992 9.52208L21.0398 9.56711L21.0519 9.20645L20.1265 9.17538L20.1404 8.75406L20.9733 8.78178L20.9849 8.43467L20.152 8.40632L20.1649 8.0221L21.077 8.05275L21.0766 8.05254Z" fill="#0C0C0C"/>
<path d="M22.018 7.83252L21.6797 9.67439L22.0882 9.74986L22.4265 7.90799L22.018 7.83252Z" fill="#0C0C0C"/>
<path d="M24.0187 8.33824L23.6817 9.42523L23.1723 8.07452L22.8945 7.98779L22.3398 9.77651L22.7365 9.90034L23.069 8.82878L23.5705 10.1605L23.8607 10.251L24.4154 8.46228L24.0187 8.33845V8.33824Z" fill="#0C0C0C"/>
<path d="M25.992 9.21864L25.0084 10.1336L25.1716 8.80023L24.7755 8.59863L24.5703 10.595L24.8884 10.7572L26.3837 9.41856L25.9922 9.21885L25.992 9.21864Z" fill="#0C0C0C"/>
<path d="M27.5556 10.6987L27.7649 10.4085L26.6884 9.62793L25.5938 11.1454L26.6809 11.9339L26.8917 11.6414L26.1416 11.0973L26.388 10.7556L27.0633 11.2451L27.2662 10.9636L26.5909 10.4737L26.816 10.1623L27.5556 10.6984V10.6987Z" fill="#0C0C0C"/>
<path d="M28.5382 11.0853C28.259 10.8182 27.9211 10.7813 27.6835 11.0306C27.2308 11.5066 27.9797 11.9919 27.7367 12.2473C27.66 12.328 27.5379 12.3061 27.4117 12.1856C27.2697 12.0499 27.2213 11.8973 27.2319 11.7132L26.8525 11.7201C26.8418 11.9963 26.9254 12.2119 27.1479 12.4241C27.4733 12.7356 27.8144 12.7647 28.0612 12.5056C28.5305 12.0124 27.7853 11.5235 28.0099 11.2871C28.081 11.2124 28.1822 11.2325 28.2895 11.3352C28.3931 11.434 28.4351 11.5512 28.4351 11.7126L28.8151 11.7051C28.8211 11.4951 28.7278 11.2666 28.5382 11.0848V11.0853Z" fill="#0C0C0C"/>
<path d="M29.1194 11.6855L28.8352 11.9109L29.1972 12.3708L28.0156 13.3062L28.273 13.6329L29.4546 12.6981L29.8165 13.158L30.1014 12.9333L29.1196 11.686L29.1194 11.6855Z" fill="#0C0C0C"/>
<path d="M30.7347 13.9118C30.4593 13.4253 29.8865 13.2629 29.4126 13.5326C28.9388 13.8024 28.7821 14.3855 29.0575 14.8721C29.3303 15.3545 29.9054 15.5154 30.379 15.2457C30.8555 14.9744 31.01 14.3984 30.7345 13.9116L30.7347 13.9118ZM30.1713 14.8731C29.8653 15.047 29.5486 14.9713 29.3842 14.6803C29.2195 14.3897 29.3172 14.0782 29.6231 13.9039C29.9291 13.7296 30.2412 13.8084 30.4056 14.099C30.5688 14.3874 30.4749 14.7003 30.1713 14.8731Z" fill="#0C0C0C"/>
<path d="M31.6053 15.9039L31.3473 15.1851L29.5898 15.8192L29.7308 16.2114L30.4552 15.95L30.4699 15.9921L29.9341 16.7778L30.1005 17.2423L30.6348 16.4121C30.7832 16.669 31.0323 16.7759 31.2987 16.68C31.6024 16.5702 31.7305 16.2537 31.6051 15.9041L31.6053 15.9039ZM31.1531 16.2896C31.0163 16.3392 30.9003 16.2821 30.844 16.1251L30.7437 15.8455L31.1843 15.6864L31.2856 15.9683C31.3411 16.1232 31.2806 16.2437 31.1533 16.2896H31.1531Z" fill="#0C0C0C"/>
<path d="M32.0763 17.4957C31.9969 17.1171 31.7389 16.8951 31.4023 16.9664C30.7602 17.1027 31.1045 17.9268 30.7602 18C30.6517 18.0231 30.5629 17.936 30.5268 17.765C30.4866 17.5726 30.5324 17.4192 30.6451 17.2733L30.3276 17.0642C30.1635 17.2862 30.1112 17.5115 30.1746 17.8122C30.2675 18.2535 30.5328 18.4714 30.8819 18.3971C31.5476 18.2562 31.2083 17.4302 31.5268 17.3631C31.6276 17.3412 31.7002 17.4154 31.7306 17.561C31.7601 17.7008 31.7287 17.822 31.638 17.955L31.9551 18.1641C32.079 17.9944 32.1308 17.753 32.0763 17.4957Z" fill="#0C0C0C"/>
<path d="M10.0276 23.0874C9.86627 22.5516 9.34068 22.248 8.81883 22.4061C8.29968 22.5633 8.01859 23.0976 8.1768 23.6231C8.33773 24.1562 8.78972 24.4268 9.43278 24.2321L9.491 24.214L9.2072 23.2721L8.87018 23.374L9.01717 23.8894C8.78515 23.8985 8.61549 23.767 8.53919 23.5131C8.44667 23.2058 8.60801 22.9156 8.94233 22.8145C9.27644 22.7129 9.56813 22.8743 9.66398 23.1918C9.72365 23.3896 9.6935 23.565 9.58206 23.7268L9.93468 23.9163C10.0798 23.6919 10.1201 23.3944 10.0276 23.0869V23.0874Z" fill="#0C0C0C"/>
<path d="M10.6641 24.7477L10.3248 24.0635L8.65234 24.8978L8.83717 25.2705L9.52681 24.9272L9.54677 24.9674L9.10496 25.8101L9.3241 26.2518L9.75904 25.3652C9.93618 25.6031 10.1963 25.6808 10.4497 25.5543C10.7387 25.4102 10.8292 25.0806 10.6643 24.7477H10.6641ZM10.2597 25.1834C10.1297 25.2487 10.0077 25.2057 9.9339 25.056L9.80167 24.79L10.221 24.5809L10.3541 24.8492C10.4271 24.9966 10.3809 25.1232 10.2597 25.1834Z" fill="#0C0C0C"/>
<path d="M11.5455 26.137C11.2179 25.6838 10.6307 25.5869 10.1898 25.9075C9.74879 26.2288 9.65814 26.8256 9.98601 27.2786C10.311 27.7273 10.9 27.8232 11.341 27.5021C11.7842 27.1796 11.8738 26.5898 11.5457 26.137H11.5455ZM11.0925 27.1548C10.8077 27.362 10.4846 27.3222 10.2891 27.0514C10.0931 26.7808 10.155 26.4604 10.4399 26.2532C10.7247 26.0459 11.0436 26.0891 11.2395 26.3593C11.4337 26.6276 11.3755 26.9488 11.0925 27.1546V27.1548Z" fill="#0C0C0C"/>
<path d="M12.9781 27.7932L12.1714 28.6276C12.0165 28.7875 11.8128 28.7814 11.6648 28.6374C11.5163 28.4937 11.5001 28.2855 11.6564 28.1239L12.4613 27.2914L12.1612 27L11.3731 27.8149C11.0656 28.1333 11.0726 28.5909 11.4013 28.9103C11.7319 29.2315 12.1808 29.2209 12.4881 28.9023L13.2781 28.0857L12.9781 27.7937V27.7932Z" fill="#0C0C0C"/>
<path d="M14.067 28.6493L13.4296 28.1978L12.3516 29.7269L12.6905 29.9671L13.0834 29.4105L13.3811 29.6218C13.671 29.8272 14.0269 29.8003 14.239 29.4991C14.4498 29.2005 14.3564 28.8549 14.067 28.6495V28.6493ZM13.9021 29.2601C13.8028 29.4011 13.6456 29.4125 13.5179 29.3223L13.2697 29.1461L13.5826 28.7021L13.8308 28.8782C13.9585 28.9687 14.0013 29.1192 13.9019 29.2601H13.9021Z" fill="#0C0C0C"/>
<path d="M15.8526 29.6028C15.3399 29.3812 14.7859 29.5978 14.5698 30.0992C14.354 30.6012 14.5796 31.1612 15.0921 31.3826C15.5996 31.6023 16.1547 31.3834 16.3707 30.8816C16.588 30.3773 16.3647 29.8244 15.8526 29.6028ZM15.9811 30.71C15.8416 31.034 15.5435 31.1647 15.2374 31.0321C14.9314 30.9 14.8214 30.5922 14.9609 30.2683C15.1 29.9447 15.3963 29.8186 15.7023 29.9508C16.0061 30.0823 16.1192 30.3884 15.9811 30.71Z" fill="#0C0C0C"/>
<path d="M18.0312 30.6916L18.1177 30.3444L16.8628 30.0303L16.4102 31.8471L16.8133 31.9476L16.9908 31.2348L17.8017 31.4379L17.8886 31.0908L17.0773 30.8877L17.179 30.4785L18.0314 30.6918L18.0312 30.6916Z" fill="#0C0C0C"/>
<path d="M19.478 32.0022C19.153 31.9847 18.9385 31.7389 18.958 31.3839C18.9769 31.0345 19.2173 30.8137 19.5418 30.8314C19.7244 30.8417 19.8608 30.913 19.9529 31.0243L20.246 30.7587C20.0805 30.5821 19.8587 30.4689 19.5628 30.4528C19.0054 30.4222 18.5626 30.8148 18.5328 31.3608C18.5027 31.909 18.9027 32.3508 19.4601 32.3814C19.7639 32.3981 19.994 32.3102 20.1826 32.153L19.9181 31.8567C19.809 31.9568 19.6684 32.0129 19.478 32.0022Z" fill="#0C0C0C"/>
<path d="M21.9163 30.3384L21.5007 30.3842L21.5797 31.1091L20.8437 31.1902L20.7643 30.4653L20.3516 30.5108L20.5553 32.3723L20.968 32.3268L20.8826 31.549L21.619 31.4679L21.7044 32.2457L22.1196 32.1998L21.9163 30.3384Z" fill="#0C0C0C"/>
<path d="M23.0554 30.0303L22.6944 30.1337L22.4961 32.1392L22.9107 32.0202L22.9371 31.6595L23.6392 31.4579L23.8519 31.75L24.2739 31.6291L23.0554 30.0305V30.0303ZM22.9635 31.2984L23.0138 30.5884L23.429 31.165L22.9635 31.2984Z" fill="#0C0C0C"/>
<path d="M26.0421 30.7989L25.2323 29.1113L24.8578 29.2921L25.3502 30.3178L24.0595 29.6771L23.7969 29.8037L24.6067 31.4913L24.9811 31.3109L24.4959 30.2996L25.7681 30.9313L26.0421 30.7987V30.7989Z" fill="#0C0C0C"/>
<path d="M27.3521 28.7581C27.0313 28.3103 26.466 28.2436 26.0103 28.5717L25.4023 29.0097L26.4918 30.5306L27.1039 30.0898C27.5573 29.7636 27.6702 29.2022 27.3521 28.7581ZM26.8824 29.7986L26.6161 29.9904L25.951 29.0614L26.2178 28.8696C26.4905 28.6731 26.7978 28.7162 27.0049 29.0049C27.2128 29.296 27.1575 29.6006 26.8824 29.7984V29.7986Z" fill="#0C0C0C"/>
<path d="M27.2084 27.584L26.9023 27.8658L28.1644 29.2462L28.4708 28.9643L27.2084 27.584Z" fill="#0C0C0C"/>
<path d="M29.2506 26.603L29.2044 26.5636L28.5693 27.3141L28.8379 27.5426L29.1897 27.1388C29.3234 27.3293 29.3053 27.5434 29.1342 27.7461C28.9271 27.9908 28.5965 28.0121 28.3304 27.7859C28.0641 27.5593 28.0406 27.2259 28.2541 26.9728C28.3878 26.8152 28.5508 26.7452 28.7468 26.7516L28.714 26.3516C28.4472 26.3507 28.1763 26.4785 27.9693 26.7233C27.6077 27.1502 27.6387 27.7577 28.0547 28.1111C28.468 28.463 29.0685 28.41 29.4225 27.991C29.7822 27.5659 29.7633 27.0389 29.2506 26.6028V26.603Z" fill="#0C0C0C"/>
<path d="M29.0819 25.1755L28.8906 25.4995L30.1221 27.0916L30.3412 26.7195L30.1133 26.4395L30.4845 25.8091L30.8396 25.8743L31.0629 25.4951L29.0821 25.1753L29.0819 25.1755ZM29.8848 26.1595L29.4345 25.6093L30.1312 25.7415L29.8848 26.1595Z" fill="#0C0C0C"/>
<path d="M31.5712 24.2211L31.7506 23.7618L30.8034 24.0331C30.8602 23.742 30.7433 23.4962 30.4799 23.3924C30.1795 23.2742 29.8749 23.4281 29.7397 23.7739L29.4609 24.485L31.1995 25.1692L31.3515 24.7817L30.635 24.4994L30.6512 24.4577L31.571 24.2213L31.5712 24.2211ZM30.4577 24.1102L30.3495 24.3868L29.9136 24.2153L30.0227 23.9363C30.0828 23.7829 30.2075 23.7324 30.3333 23.782C30.4687 23.8354 30.5188 23.9549 30.4577 24.1102Z" fill="#0C0C0C"/>
<path d="M32.0883 22.3131L32.1779 21.9034L30.3535 21.5015L30.2639 21.9107L30.9743 22.0673L30.8157 22.7928L30.1048 22.6366L30.0156 23.0431L31.84 23.4451L31.9292 23.0385L31.167 22.8707L31.3261 22.1448L32.0883 22.3131Z" fill="#0C0C0C"/>
<path d="M9.11911 20.0141C9.11911 20.2964 8.89 20.5261 8.60849 20.5261C8.32698 20.5261 8.09766 20.2964 8.09766 20.0141C8.09766 19.7318 8.32636 19.5015 8.60849 19.5015C8.89062 19.5015 9.11911 19.7312 9.11911 20.0141Z" fill="#0C0C0C"/>
<path d="M31.8567 20.013C31.8567 20.2832 31.6376 20.5029 31.3681 20.5029C31.0987 20.5029 30.8789 20.2832 30.8789 20.013C30.8789 19.7428 31.098 19.5225 31.3681 19.5225C31.6382 19.5225 31.8567 19.7422 31.8567 20.013Z" fill="#0C0C0C"/>
<path d="M29.6257 10.3506C27.0513 7.76925 23.6289 6.34766 19.9882 6.34766C16.3475 6.34766 12.9251 7.76925 10.3508 10.3506C7.77711 12.9319 6.35938 16.3636 6.35938 20.0142C6.35938 23.6648 7.77711 27.0965 10.3508 29.6775C12.9251 32.2588 16.348 33.6804 19.9882 33.6804C23.6285 33.6804 27.0513 32.2588 29.6257 29.6775C32.2 27.0967 33.6177 23.6644 33.6177 20.0142C33.6177 16.364 32.2 12.9319 29.6257 10.3506ZM19.9882 33.0731C12.8073 33.0731 6.96481 27.2147 6.96481 20.0142C6.96481 12.8137 12.8073 6.95536 19.9882 6.95536C27.1692 6.95536 33.0117 12.8131 33.0117 20.0142C33.0117 27.2154 27.1698 33.0731 19.9882 33.0731Z" fill="#0C0C0C"/>
</g>
<defs>
<clipPath id="clip0_738_265600">
<rect width="40" height="40" fill="white"/>
</clipPath>
</defs>
</svg>
